G04*
G04 #@! TF.GenerationSoftware,Altium Limited,Altium Designer,22.3.1 (43)*
G04*
G04 Layer_Physical_Order=2*
G04 Layer_Color=16711680*
%FSLAX42Y42*%
%MOMM*%
G71*
G04*
G04 #@! TF.SameCoordinates,AC6673A2-E20F-4C1F-95A1-B2BFFBCC7199*
G04*
G04*
G04 #@! TF.FilePolarity,Positive*
G04*
G01*
G75*
%ADD24C,0.50*%
%ADD25C,1.00*%
%ADD26C,0.30*%
%ADD27R,1.80X1.80*%
%ADD28C,1.80*%
%ADD29C,1.50*%
%ADD30O,3.00X1.50*%
%ADD31C,0.20*%
D24*
X1026Y969D02*
X1060Y935D01*
X1026Y969D02*
Y974D01*
X1060Y900D02*
Y935D01*
X566Y1194D02*
Y1650D01*
Y1194D02*
X1010Y750D01*
X1490D01*
X990Y1170D02*
Y1370D01*
Y1170D02*
X1300Y860D01*
X2870D01*
X820Y1180D02*
Y1650D01*
Y1180D02*
X1026Y974D01*
X2870Y860D02*
X3070Y660D01*
X1337Y953D02*
X3127D01*
X3260Y820D01*
X1120Y1240D02*
X1139Y1221D01*
Y1151D02*
Y1221D01*
Y1151D02*
X1337Y953D01*
X1156Y1486D02*
Y1565D01*
Y1486D02*
X1180Y1462D01*
X1074Y1646D02*
X1156Y1565D01*
X1490Y750D02*
X1510Y730D01*
X1074Y1646D02*
Y1650D01*
D25*
X1840Y105D02*
X2326D01*
X1276Y106D02*
X1839D01*
X986D02*
X1276D01*
X1839D02*
X1840Y105D01*
X2750Y1110D02*
X3350D01*
X1868D02*
X2750D01*
X564Y106D02*
X986D01*
X3350Y1110D02*
X3430Y1030D01*
X1328Y1650D02*
X1868Y1110D01*
X2326Y270D02*
X3340D01*
X2326Y270D02*
Y596D01*
Y106D02*
Y270D01*
X2326Y270D01*
X3430Y360D02*
Y900D01*
X3580D01*
X3430D02*
Y1030D01*
X3340Y270D02*
X3430Y360D01*
X986Y106D02*
Y625D01*
Y106D02*
X986Y106D01*
X280Y315D02*
X355D01*
X564Y106D01*
X171Y1416D02*
X240Y1485D01*
X163Y1403D02*
X171Y1411D01*
X163Y1323D02*
Y1403D01*
X240Y1485D02*
X280D01*
X171Y1411D02*
Y1416D01*
X150Y1310D02*
X163Y1323D01*
X100Y1233D02*
X150Y1283D01*
X100Y430D02*
Y1233D01*
Y430D02*
X215Y315D01*
X280D01*
X2326Y596D02*
X2466Y736D01*
X2626D01*
D26*
X3348Y1400D02*
X3390Y1442D01*
Y1483D01*
X3348Y1525D01*
X3203Y1483D02*
X3265D01*
X3286Y1462D01*
Y1421D01*
X3265Y1400D01*
X3203D01*
X3161D02*
X3119Y1442D01*
Y1483D01*
X3161Y1525D01*
X2932D02*
Y1400D01*
Y1442D01*
X2849Y1525D01*
X2911Y1462D01*
X2849Y1400D01*
X2786Y1483D02*
X2744D01*
X2724Y1462D01*
Y1400D01*
X2786D01*
X2807Y1421D01*
X2786Y1442D01*
X2724D01*
X2661Y1504D02*
Y1483D01*
X2682D01*
X2640D01*
X2661D01*
Y1421D01*
X2640Y1400D01*
X2578Y1483D02*
X2494D01*
X2578Y1400D01*
X2494D01*
X2245D02*
X2328D01*
X2245Y1483D01*
Y1504D01*
X2265Y1525D01*
X2307D01*
X2328Y1504D01*
X2203D02*
X2182Y1525D01*
X2140D01*
X2120Y1504D01*
Y1421D01*
X2140Y1400D01*
X2182D01*
X2203Y1421D01*
Y1504D01*
X2078Y1400D02*
X2036D01*
X2057D01*
Y1525D01*
X2078Y1504D01*
X1974Y1525D02*
X1890D01*
Y1504D01*
X1974Y1421D01*
Y1400D01*
X3347Y1725D02*
X3388D01*
X3368D01*
Y1621D01*
X3388Y1600D01*
X3409D01*
X3430Y1621D01*
X3305Y1662D02*
X3222D01*
X3180Y1725D02*
Y1600D01*
X3097D01*
X3055Y1725D02*
X3013D01*
X3034D01*
Y1600D01*
X3055D01*
X3013D01*
X2951D02*
Y1725D01*
X2868Y1600D01*
Y1725D01*
X2826D02*
Y1600D01*
Y1642D01*
X2743Y1725D01*
X2805Y1662D01*
X2743Y1600D01*
X2514Y1725D02*
X2555D01*
X2576Y1704D01*
Y1621D01*
X2555Y1600D01*
X2514D01*
X2493Y1621D01*
Y1704D01*
X2514Y1725D01*
X2451D02*
Y1600D01*
X2389D01*
X2368Y1621D01*
Y1642D01*
X2389Y1662D01*
X2451D01*
X2389D01*
X2368Y1683D01*
Y1704D01*
X2389Y1725D01*
X2451D01*
X2201Y1704D02*
X2180Y1725D01*
X2139D01*
X2118Y1704D01*
Y1621D01*
X2139Y1600D01*
X2180D01*
X2201Y1621D01*
Y1704D01*
X2076Y1725D02*
X1993D01*
Y1704D01*
X2076Y1621D01*
Y1600D01*
X1868D02*
X1951D01*
X1868Y1683D01*
Y1704D01*
X1889Y1725D01*
X1930D01*
X1951Y1704D01*
X4030Y205D02*
Y122D01*
X3988Y80D01*
X3947Y122D01*
Y205D01*
X3822Y184D02*
X3843Y205D01*
X3884D01*
X3905Y184D01*
Y101D01*
X3884Y80D01*
X3843D01*
X3822Y101D01*
X3697Y184D02*
X3718Y205D01*
X3759D01*
X3780Y184D01*
Y101D01*
X3759Y80D01*
X3718D01*
X3697Y101D01*
X4040Y455D02*
X3957D01*
X3998D01*
Y330D01*
X3915Y455D02*
X3832Y330D01*
Y455D02*
X3915Y330D01*
X3790Y455D02*
Y330D01*
X3728D01*
X3707Y351D01*
Y434D01*
X3728Y455D01*
X3790D01*
X4040Y580D02*
Y705D01*
X3978D01*
X3957Y684D01*
Y642D01*
X3978Y622D01*
X4040D01*
X3998D02*
X3957Y580D01*
X3915Y705D02*
X3832Y580D01*
Y705D02*
X3915Y580D01*
X3790Y705D02*
Y580D01*
X3728D01*
X3707Y601D01*
Y684D01*
X3728Y705D01*
X3790D01*
X3957Y934D02*
X3978Y955D01*
X4019D01*
X4040Y934D01*
Y851D01*
X4019Y830D01*
X3978D01*
X3957Y851D01*
Y892D01*
X3998D01*
X3915Y830D02*
Y955D01*
X3832Y830D01*
Y955D01*
X3790D02*
Y830D01*
X3728D01*
X3707Y851D01*
Y934D01*
X3728Y955D01*
X3790D01*
X4040Y1090D02*
Y1215D01*
X3978D01*
X3957Y1194D01*
Y1152D01*
X3978Y1132D01*
X4040D01*
X3998D02*
X3957Y1090D01*
X3832Y1194D02*
X3853Y1215D01*
X3894D01*
X3915Y1194D01*
Y1173D01*
X3894Y1152D01*
X3853D01*
X3832Y1132D01*
Y1111D01*
X3853Y1090D01*
X3894D01*
X3915Y1111D01*
X3790Y1215D02*
X3707D01*
X3748D01*
Y1090D01*
X3967Y1444D02*
X3988Y1465D01*
X4029D01*
X4050Y1444D01*
Y1361D01*
X4029Y1340D01*
X3988D01*
X3967Y1361D01*
X3925Y1465D02*
Y1340D01*
X3842D01*
X3800Y1465D02*
Y1340D01*
Y1382D01*
X3717Y1465D01*
X3779Y1402D01*
X3717Y1340D01*
X4050Y1725D02*
Y1600D01*
X3988D01*
X3967Y1621D01*
Y1704D01*
X3988Y1725D01*
X4050D01*
X3925D02*
X3883D01*
X3904D01*
Y1600D01*
X3925D01*
X3883D01*
X3758Y1725D02*
X3800D01*
X3821Y1704D01*
Y1621D01*
X3800Y1600D01*
X3758D01*
X3738Y1621D01*
Y1704D01*
X3758Y1725D01*
D27*
X2810Y430D02*
D03*
X566Y1650D02*
D03*
D28*
X2556Y430D02*
D03*
X820Y1650D02*
D03*
X1074D02*
D03*
X1328D02*
D03*
D29*
X280Y675D02*
D03*
Y1125D02*
D03*
X3580Y900D02*
D03*
X1060D02*
D03*
X2750Y1110D02*
D03*
X2810Y120D02*
D03*
X150Y1310D02*
D03*
X3070Y660D02*
D03*
X3260Y820D02*
D03*
X2626Y736D02*
D03*
X1180Y1462D02*
D03*
X1120Y1240D02*
D03*
X990Y1370D02*
D03*
X986Y625D02*
D03*
X2326Y106D02*
D03*
X1840Y105D02*
D03*
X1276Y106D02*
D03*
X1510Y730D02*
D03*
D30*
X280Y315D02*
D03*
Y1485D02*
D03*
D31*
X2326Y105D02*
X2326Y106D01*
X1840Y105D02*
X1840Y105D01*
M02*
