M48
;Layer_Color=9474304
;FILE_FORMAT=4:2
METRIC,LZ
;TYPE=PLATED
T1F00S00C0.50
;TYPE=NON_PLATED
T3F00S00C0.50
%
T01
X001276Y000106
X00184Y000105
X002326Y000106
X00281Y00012
Y00043
X002556
X002626Y000736
X00275Y00111
X00151Y00073
X00106Y0009
X000986Y000625
X00112Y00124
X00099Y00137
X00118Y001462
X001074Y00165
X00082
X000566
X00015Y00131
X001328Y00165
X00307Y00066
X00326Y00082
X00358Y0009
T03
X00028Y000675
Y001125
M30
